<?xml version="1.0" standalone="no"?>
<!DOCTYPE svg PUBLIC "-//W3C//DTD SVG 20010904//EN"
 "http://www.w3.org/TR/2001/REC-SVG-20010904/DTD/svg10.dtd">
<svg version="1.0" xmlns="http://www.w3.org/2000/svg"
 width="1080.000000pt" height="1080.000000pt" viewBox="0 0 1080.000000 1080.000000"
 preserveAspectRatio="xMidYMid meet">

<g transform="translate(0.000000,1080.000000) scale(0.100000,-0.100000)"
fill="#000000" stroke="none">
<path d="M8800 6110 l0 -600 125 0 125 0 0 600 0 600 -125 0 -125 0 0 -600z"/>
<path d="M1522 6679 c-118 -20 -233 -106 -280 -209 -20 -43 -26 -71 -26 -130
0 -146 69 -226 292 -339 78 -40 151 -84 162 -98 22 -28 26 -82 10 -114 -19
-34 -70 -53 -145 -53 -60 0 -81 6 -145 36 -41 20 -91 47 -109 62 -19 14 -38
23 -41 19 -4 -5 -34 -54 -68 -110 l-61 -103 45 -30 c218 -151 528 -161 711
-24 42 31 82 100 104 178 12 40 18 52 18 34 3 -93 98 -225 197 -274 110 -54
254 -41 348 31 l46 35 0 -40 0 -40 120 0 120 0 2 344 3 345 185 -345 185 -344
85 0 85 1 185 347 c102 191 186 352 188 359 3 10 -29 13 -140 13 l-144 0 -85
-190 c-46 -104 -87 -190 -90 -190 -3 0 -44 84 -90 188 l-84 187 -265 0 -265 0
-5 -28 -5 -27 -36 24 c-45 31 -130 56 -190 56 -26 0 -77 -9 -115 -21 -56 -17
-77 -31 -124 -77 -59 -60 -99 -132 -108 -194 -2 -21 -7 -38 -11 -38 -3 0 -14
20 -24 45 -23 56 -123 151 -197 187 -30 14 -99 47 -152 73 -129 62 -156 96
-126 160 34 76 170 80 309 10 28 -15 52 -25 54 -23 1 2 26 49 54 105 l51 102
-34 21 c-53 32 -171 69 -260 80 -44 5 -81 9 -81 9 0 -1 -24 -5 -53 -10z m987
-672 c102 -68 89 -238 -22 -291 -76 -35 -182 -4 -218 64 -27 50 -25 137 4 181
51 78 157 98 236 46z"/>
<path d="M6628 6680 c-233 -40 -373 -276 -277 -468 42 -85 99 -131 256 -209
157 -78 199 -115 189 -171 -3 -19 -15 -45 -27 -58 -27 -29 -107 -48 -163 -40
-49 8 -175 65 -224 103 -18 14 -35 23 -36 22 -9 -11 -126 -214 -126 -219 0 -3
24 -20 53 -37 127 -78 243 -113 373 -113 241 0 403 109 432 292 8 49 9 51 16
23 37 -150 137 -258 280 -300 96 -29 235 -15 334 33 50 24 142 109 142 132 0
5 -37 29 -83 51 l-82 41 -54 -36 c-46 -31 -61 -36 -112 -36 -97 0 -169 51
-169 120 0 20 3 20 257 18 l257 -3 8 -45 c18 -105 107 -218 206 -262 105 -47
247 -31 336 37 l46 35 0 -40 0 -40 120 0 120 0 0 360 0 361 -122 -3 -123 -3
-5 -28 -5 -27 -36 24 c-19 13 -59 31 -89 40 -188 56 -372 -44 -439 -240 -11
-32 -20 -49 -21 -37 0 12 -9 47 -21 77 -55 149 -238 239 -421 208 -163 -28
-283 -142 -323 -305 -8 -32 -13 -42 -14 -27 -2 40 -56 124 -108 169 -28 25
-109 72 -193 112 -170 83 -200 107 -200 160 0 29 7 43 29 62 64 53 181 39 333
-41 10 -5 110 197 103 209 -12 18 -104 59 -177 78 -90 24 -178 31 -240 21z
m899 -596 c41 -8 70 -33 88 -76 l15 -38 -135 0 -135 0 0 24 c0 29 50 83 83 89
36 7 53 7 84 1z m862 -77 c102 -68 89 -238 -22 -291 -76 -35 -182 -4 -218 64
-27 50 -25 137 4 181 51 78 157 98 236 46z"/>
<path d="M5520 6365 l0 -135 -55 0 -55 0 0 -95 0 -95 54 0 54 0 4 -192 c3
-188 4 -194 30 -245 52 -99 173 -136 313 -98 36 9 68 21 71 26 4 7 -40 170
-52 191 -2 3 -20 1 -39 -5 -32 -9 -38 -8 -58 11 -20 21 -22 34 -25 167 l-4
145 81 0 82 0 -3 93 -3 92 -77 3 -78 3 0 134 0 135 -120 0 -120 0 0 -135z"/>
<path d="M3921 6229 c-113 -36 -208 -153 -233 -288 -31 -168 54 -346 198 -417
110 -54 254 -41 348 31 l46 35 0 -40 0 -40 120 0 120 0 0 360 0 361 -122 -3
-123 -3 -5 -28 -5 -27 -36 24 c-82 56 -198 69 -308 35z m288 -222 c102 -68 89
-238 -22 -291 -76 -35 -182 -4 -218 64 -27 50 -25 137 4 181 51 78 157 98 236
46z"/>
<path d="M4996 6236 c-21 -8 -58 -29 -82 -46 l-44 -31 0 35 0 36 -125 0 -125
0 0 -360 0 -360 125 0 125 0 0 225 0 225 36 40 c72 79 177 72 218 -15 13 -27
16 -73 16 -254 l0 -221 126 0 125 0 -3 278 c-3 307 -3 307 -73 376 -66 66
-233 104 -319 72z"/>
</g>
</svg>
