<?xml version="1.0" standalone="no"?>
<!DOCTYPE svg PUBLIC "-//W3C//DTD SVG 20010904//EN"
 "http://www.w3.org/TR/2001/REC-SVG-20010904/DTD/svg10.dtd">
<svg version="1.0" xmlns="http://www.w3.org/2000/svg"
 width="1080.000000pt" height="427.000000pt" viewBox="0 0 1080.000000 427.000000"
 preserveAspectRatio="xMidYMid meet">

<g transform="translate(0.000000,427.000000) scale(0.100000,-0.100000)"
fill="#000000" stroke="none">
<path d="M10000 2270 l0 -760 155 0 155 0 0 760 0 760 -155 0 -155 0 0 -760z"/>
<path d="M790 2989 c-118 -21 -249 -105 -312 -200 -54 -82 -71 -145 -66 -247
7 -179 89 -273 358 -407 103 -52 183 -98 204 -120 32 -31 36 -42 36 -86 0 -44
-4 -55 -33 -84 -33 -33 -101 -55 -171 -55 -71 0 -212 58 -309 126 -26 19 -49
34 -52 34 -2 0 -41 -62 -86 -137 l-81 -137 29 -24 c52 -43 245 -130 328 -148
106 -23 287 -23 375 0 204 53 337 182 357 345 6 57 16 52 28 -14 11 -67 62
-159 119 -219 154 -160 420 -176 581 -35 l35 31 0 -51 0 -51 155 0 155 0 2
435 3 435 232 -432 232 -433 108 -3 108 -2 180 337 c99 185 208 390 243 455
l63 118 -186 -2 -187 -3 -103 -230 c-57 -126 -107 -236 -112 -243 -5 -9 -45
69 -118 232 l-109 246 -333 0 -333 0 0 -40 c0 -22 -2 -40 -4 -40 -2 0 -27 16
-56 35 -77 52 -143 68 -264 63 -91 -3 -110 -7 -167 -35 -126 -62 -223 -196
-253 -349 -8 -38 -15 -57 -15 -43 -2 52 -60 146 -129 210 -55 51 -100 77 -257
155 -200 98 -211 104 -238 144 -35 50 -8 123 56 153 74 35 233 12 350 -51 26
-14 49 -23 51 -21 9 10 126 250 126 258 0 17 -160 89 -242 110 -95 24 -225 33
-298 20z m1227 -833 c75 -38 113 -104 113 -194 0 -76 -30 -137 -88 -177 -39
-27 -52 -30 -115 -30 -58 0 -80 5 -115 25 -80 45 -118 150 -91 247 16 59 80
126 135 141 48 14 123 8 161 -12z"/>
<path d="M7234 2985 c-283 -61 -448 -347 -337 -583 16 -35 51 -81 88 -118 53
-52 88 -74 237 -147 188 -94 235 -130 244 -189 9 -51 -19 -104 -67 -128 -111
-57 -264 -25 -439 92 -34 22 -62 39 -64 37 -31 -40 -156 -266 -152 -275 7 -19
105 -80 183 -116 134 -60 300 -86 445 -68 278 33 427 164 457 398 6 45 9 55
10 30 3 -99 73 -233 160 -309 170 -147 448 -166 655 -45 45 26 146 131 146
151 0 6 -49 35 -109 65 l-109 53 -36 -31 c-50 -43 -82 -58 -143 -67 -125 -17
-243 67 -243 172 0 10 72 13 330 13 l330 0 0 -29 c0 -46 35 -146 69 -200 43
-67 121 -138 184 -166 149 -68 338 -48 444 49 22 20 43 36 47 36 3 0 6 -22 6
-50 l0 -50 155 0 155 0 -2 453 -3 452 -157 3 -158 3 0 -41 0 -40 -52 34 c-78
51 -152 69 -267 64 -82 -3 -106 -8 -164 -35 -116 -55 -211 -171 -247 -303
l-13 -45 -12 50 c-36 157 -156 278 -318 321 -79 21 -232 18 -308 -6 -171 -53
-318 -223 -337 -390 l-8 -65 -7 43 c-17 98 -100 206 -215 280 -31 19 -112 60
-182 91 -132 60 -213 109 -230 141 -18 34 -12 87 15 118 37 44 73 55 168 50
67 -4 97 -11 167 -42 47 -20 90 -40 97 -43 7 -3 37 44 78 126 l65 131 -47 30
c-60 39 -204 85 -306 99 -97 14 -126 13 -203 -4z m1192 -764 c43 -20 84 -73
84 -110 0 -21 -3 -21 -170 -21 -190 0 -187 -2 -150 69 37 73 148 102 236 62z
m992 -53 c57 -14 126 -79 141 -134 22 -80 7 -155 -42 -211 -99 -113 -288 -91
-348 42 -22 48 -25 142 -5 188 27 64 116 125 184 127 13 0 44 -5 70 -12z"/>
<path d="M5850 2590 l0 -170 -65 0 -65 0 0 -120 0 -120 64 0 64 0 4 -238 3
-238 33 -67 c54 -109 135 -152 282 -150 63 1 102 7 150 25 36 13 64 28 64 34
-1 5 -18 62 -38 127 -34 107 -38 116 -56 107 -32 -17 -85 -12 -106 11 -17 19
-19 41 -22 205 l-3 184 95 0 96 0 0 120 0 120 -95 0 -95 0 0 170 0 170 -155 0
-155 0 0 -170z"/>
<path d="M3832 2421 c-117 -40 -226 -147 -273 -269 -31 -79 -38 -245 -14 -328
26 -90 62 -153 124 -214 152 -152 397 -169 561 -39 l50 39 0 -50 0 -50 155 0
155 0 0 455 0 456 -157 -3 -158 -3 -3 -37 -3 -38 -51 35 c-27 19 -73 42 -101
50 -71 21 -218 19 -285 -4z m338 -266 c38 -20 86 -77 100 -121 19 -57 7 -147
-25 -195 -40 -56 -118 -93 -189 -87 -112 9 -183 78 -193 186 -10 109 44 197
138 227 50 16 127 12 169 -10z"/>
<path d="M5193 2429 c-18 -5 -62 -30 -98 -54 l-65 -45 0 45 0 45 -160 0 -160
0 0 -455 0 -455 160 0 160 0 0 276 c0 265 1 278 22 315 49 87 167 126 237 77
45 -31 70 -66 81 -114 5 -21 10 -155 10 -296 l0 -258 155 0 155 0 0 315 c0
188 -4 334 -11 365 -32 148 -188 251 -378 249 -42 0 -90 -5 -108 -10z"/>
</g>
</svg>
